<svg width="25" height="28" viewBox="0 0 25 28" fill="none" xmlns="http://www.w3.org/2000/svg">
<g id="shape">
<path d="M18.4722 18.3333H6.97223C3.79659 18.3333 1.22223 20.9201 1.22223 24.1111V27H24.2222V24.1111C24.2222 20.9201 21.6479 18.3333 18.4722 18.3333Z" fill="#B7B7B7"/>
<path d="M12.7222 12.5556C15.8979 12.5556 18.4722 9.96876 18.4722 6.77778C18.4722 3.5868 15.8979 1 12.7222 1C9.54659 1 6.97223 3.5868 6.97223 6.77778C6.97223 9.96876 9.54659 12.5556 12.7222 12.5556Z" fill="#B7B7B7"/>
<path d="M18.4722 18.3333H6.97223C3.79659 18.3333 1.22223 20.9201 1.22223 24.1111V27H24.2222V24.1111C24.2222 20.9201 21.6479 18.3333 18.4722 18.3333Z" stroke="#B7B7B7" stroke-width="1.5" stroke-linecap="round" stroke-linejoin="round"/>
<path d="M12.7222 12.5556C15.8979 12.5556 18.4722 9.96876 18.4722 6.77778C18.4722 3.5868 15.8979 1 12.7222 1C9.54659 1 6.97223 3.5868 6.97223 6.77778C6.97223 9.96876 9.54659 12.5556 12.7222 12.5556Z" stroke="#B7B7B7" stroke-width="1.5" stroke-linecap="round" stroke-linejoin="round"/>
</g>
</svg>
