<svg width="16" height="17" viewBox="0 0 16 17" fill="none" xmlns="http://www.w3.org/2000/svg">
<g id="Group 67">
<path id="Rectangle 56" d="M12.0833 2.25C12.5918 1.74147 12.846 1.48721 13.1519 1.4308C13.2718 1.40868 13.3947 1.40868 13.5146 1.4308C13.8205 1.48721 14.0747 1.74147 14.5833 2.25V2.25C15.0918 2.75853 15.346 3.01279 15.4025 3.31861C15.4246 3.43853 15.4246 3.56147 15.4025 3.68139C15.346 3.98721 15.0918 4.24147 14.5833 4.75L6.17825 13.155C6.05369 13.2796 5.99141 13.3418 5.91962 13.3921C5.84783 13.4423 5.76798 13.4795 5.60829 13.5539L1.24992 15.5833L3.27939 11.225C3.35375 11.0653 3.39093 10.9854 3.44117 10.9136C3.49141 10.8418 3.55369 10.7796 3.67825 10.655L12.0833 2.25Z" stroke="#AB7CE6" stroke-linecap="round" stroke-linejoin="round"/>
<path id="Vector 21" d="M10.4761 3.8571L12.9761 6.3571" stroke="#AB7CE6"/>
</g>
</svg>
