<svg width="16" height="18" viewBox="0 0 16 18" fill="none" xmlns="http://www.w3.org/2000/svg">
<g id="Group 88">
<path id="Rectangle 15" d="M12.6154 7.80765H3C2.05719 7.80765 1.58579 7.80765 1.29289 8.10054C1 8.39343 1 8.86484 1 9.80765V15.0909C1 16.0337 1 16.5051 1.29289 16.798C1.58579 17.0909 2.05719 17.0909 3 17.0909H12.6154C13.5582 17.0909 14.0296 17.0909 14.3225 16.798C14.6154 16.5051 14.6154 16.0337 14.6154 15.0909V9.80765C14.6154 8.86484 14.6154 8.39343 14.3225 8.10054C14.0296 7.80765 13.5582 7.80765 12.6154 7.80765Z" stroke="#979595" stroke-width="1.5"/>
<path id="Rectangle 16" d="M4.71326 7.18881C4.71326 7.18881 4.71326 6.02835 4.71326 4.09441C4.71326 1.7736 5.35529 1 7.80766 1C10.26 1 10.9021 1.7736 10.9021 4.09441V7.18881" stroke="#979595" stroke-width="1.5"/>
</g>
</svg>
