<svg width="20" height="16" viewBox="0 0 20 16" fill="none" xmlns="http://www.w3.org/2000/svg">
<g id="Group 942">
<path id="Rectangle 954" d="M0.75 6C0.75 4.56458 0.751593 3.56347 0.853147 2.80812C0.951801 2.07434 1.13225 1.68577 1.40901 1.40901C1.68577 1.13225 2.07434 0.951801 2.80812 0.853147C3.56347 0.751593 4.56458 0.75 6 0.75H14C15.4354 0.75 16.4365 0.751593 17.1919 0.853147C17.9257 0.951801 18.3142 1.13225 18.591 1.40901C18.8678 1.68577 19.0482 2.07434 19.1469 2.80812C19.2484 3.56347 19.25 4.56458 19.25 6V10C19.25 11.4354 19.2484 12.4365 19.1469 13.1919C19.0482 13.9257 18.8678 14.3142 18.591 14.591C18.3142 14.8678 17.9257 15.0482 17.1919 15.1469C16.4365 15.2484 15.4354 15.25 14 15.25H6C4.56458 15.25 3.56347 15.2484 2.80812 15.1469C2.07434 15.0482 1.68577 14.8678 1.40901 14.591C1.13225 14.3142 0.951801 13.9257 0.853147 13.1919C0.751593 12.4365 0.75 11.4354 0.75 10V6Z" stroke="#979595" stroke-width="1.5"/>
<path id="Vector 57" d="M2 2L7.6 6.2C8.75556 7.06667 9.33333 7.5 10 7.5C10.6667 7.5 11.2444 7.06667 12.4 6.2L18 2" stroke="#979595" stroke-width="1.5"/>
</g>
</svg>
