<svg width="26" height="26" viewBox="0 0 26 26" fill="none" xmlns="http://www.w3.org/2000/svg">
<g id="Emoji">
<path id="Vector" d="M13 26C20.1797 26 26 20.1797 26 13C26 5.8203 20.1797 0 13 0C5.8203 0 0 5.8203 0 13C0 20.1797 5.8203 26 13 26Z" fill="#B7B7B7"/>
<path id="Vector_2" d="M6.5 15.1667C6.5 15.1667 8.66667 16.6111 13 16.6111C17.3333 16.6111 19.5 15.1667 19.5 15.1667C19.5 15.1667 18.0556 20.9445 13 20.9445C7.94444 20.9445 6.5 15.1667 6.5 15.1667Z" fill="white"/>
<path id="Vector_3" d="M8.66667 12.2778C9.66385 12.2778 10.4722 11.1461 10.4722 9.75001C10.4722 8.35395 9.66385 7.22223 8.66667 7.22223C7.66949 7.22223 6.86111 8.35395 6.86111 9.75001C6.86111 11.1461 7.66949 12.2778 8.66667 12.2778Z" fill="white"/>
<path id="Vector_4" d="M17.3333 12.2778C18.3305 12.2778 19.1389 11.1461 19.1389 9.75001C19.1389 8.35395 18.3305 7.22223 17.3333 7.22223C16.3361 7.22223 15.5278 8.35395 15.5278 9.75001C15.5278 11.1461 16.3361 12.2778 17.3333 12.2778Z" fill="white"/>
</g>
</svg>
