<svg width="26" height="26" viewBox="0 0 26 26" fill="none" xmlns="http://www.w3.org/2000/svg">
<g id="Emoji">
<path id="Vector" d="M26 13C26 20.1796 20.1796 26 13 26C5.82111 26 0 20.1796 0 13C0 5.82111 5.82111 0 13 0C20.1796 0 26 5.82111 26 13Z" fill="#B7B7B7"/>
<path id="Vector_2" d="M8.30556 14.4445C9.30274 14.4445 10.1111 13.3127 10.1111 11.9167C10.1111 10.5206 9.30274 9.38892 8.30556 9.38892C7.30837 9.38892 6.5 10.5206 6.5 11.9167C6.5 13.3127 7.30837 14.4445 8.30556 14.4445Z" fill="white"/>
<path id="Vector_3" d="M17.6944 14.4445C18.6916 14.4445 19.5 13.3127 19.5 11.9167C19.5 10.5206 18.6916 9.38892 17.6944 9.38892C16.6973 9.38892 15.8889 10.5206 15.8889 11.9167C15.8889 13.3127 16.6973 14.4445 17.6944 14.4445Z" fill="white"/>
<path id="Vector_4" d="M16.9614 20.1348C16.9534 20.1031 16.1344 16.9722 13 16.9722C9.86555 16.9722 9.04655 20.1031 9.03861 20.1348C9.00033 20.2887 9.07039 20.4461 9.20616 20.5277C9.34194 20.6086 9.51889 20.5898 9.63661 20.4844C9.64311 20.4786 10.3682 19.8611 13 19.8611C15.5928 19.8611 16.3345 20.4606 16.3627 20.4844C16.4313 20.5494 16.5208 20.5833 16.6111 20.5833C16.6718 20.5833 16.7332 20.5682 16.7888 20.5371C16.9303 20.4562 17.0011 20.2923 16.9614 20.1348Z" fill="white"/>
</g>
</svg>
