<svg width="23" height="28" viewBox="0 0 23 28" fill="none" xmlns="http://www.w3.org/2000/svg">
<g id="file icon">
<g id="Group 74">
<path id="Rectangle 15" d="M1 5V23C1 24.8856 1 25.8284 1.58579 26.4142C2.17157 27 3.11438 27 5 27H17.2222C19.1078 27 20.0506 27 20.6364 26.4142C21.2222 25.8284 21.2222 24.8856 21.2222 23V9.28145C21.2222 8.40415 21.2222 7.9655 21.0492 7.57705C20.8762 7.1886 20.5502 6.89516 19.8981 6.30827L17.6111 4.25L15.1409 2.02682C14.577 1.51929 14.295 1.26552 13.9491 1.13276C13.6031 1 13.2237 1 12.4651 1H5C3.11438 1 2.17157 1 1.58579 1.58579C1 2.17157 1 3.11438 1 5Z" fill="#B7B7B7" stroke="#B7B7B7" stroke-width="2"/>
</g>
<path id="Vector 1" d="M19.5864 9.49263L12.0006 2.59646C11.9364 2.53806 11.8333 2.58364 11.8333 2.67045V9.66662H19.5191C19.6105 9.66662 19.654 9.55411 19.5864 9.49263Z" fill="white" stroke="white"/>
</g>
</svg>
